<svg width="742" height="664" viewBox="0 0 742 664" fill="none" xmlns="http://www.w3.org/2000/svg">
<path fill-rule="evenodd" clip-rule="evenodd" d="M518.372 344.655C553.276 344.655 570.728 344.655 587.657 355.6C599.771 363.432 613.742 383.243 617.054 397.283C621.681 416.904 617.529 428.555 609.226 451.857C565.308 575.098 447.815 663.293 309.771 663.293C171.727 663.293 54.2341 575.098 10.3168 451.857C2.01314 428.555 -2.13869 416.904 2.4887 397.283C5.8 383.243 19.7716 363.432 31.8855 355.6C48.8142 344.655 66.2663 344.655 101.171 344.655L518.372 344.655Z" fill="black"/>
<path fill-rule="evenodd" clip-rule="evenodd" d="M171.949 224.987C210.266 118.072 312.497 41.69 432.463 41.69C552.43 41.69 654.661 118.072 692.977 224.987C697.498 237.599 699.248 242.828 700.021 247.073C700.462 249.496 700.613 251.608 699.55 256.176C699.551 256.175 699.551 256.174 699.551 256.174C699.545 256.173 699.286 257.047 698.434 258.766C697.49 260.67 696.159 262.922 694.53 265.236C692.901 267.55 691.23 269.562 689.757 271.093C688.426 272.476 687.69 273.014 687.694 273.019C687.694 273.02 687.721 273.002 687.775 272.967C685.549 274.408 683.148 275.529 677.004 276.306C669.311 277.28 659.202 277.353 640.803 277.353L224.124 277.353C205.724 277.353 195.616 277.28 187.923 276.306C181.853 275.539 179.436 274.434 177.232 273.018C177.233 273.019 177.233 273.019 177.233 273.019C177.237 273.014 176.501 272.476 175.17 271.093C173.697 269.562 172.026 267.55 170.397 265.236C168.768 262.922 167.437 260.67 166.493 258.766C165.641 257.047 165.382 256.173 165.376 256.174C165.376 256.174 165.376 256.175 165.377 256.177C164.314 251.608 164.465 249.496 164.906 247.073C165.679 242.828 167.429 237.599 171.949 224.987ZM154.881 307.373C171.821 318.338 189.255 318.338 224.124 318.338L640.803 318.338C675.672 318.338 693.106 318.338 710.046 307.373C722.155 299.534 736.138 279.67 739.431 265.626C744.038 245.98 739.879 234.373 731.559 211.16C687.59 88.4719 570.276 0.705137 432.463 0.705135C294.651 0.705134 177.337 88.4718 133.367 211.16C125.048 234.373 120.888 245.98 125.496 265.626C128.789 279.67 142.772 299.534 154.881 307.373Z" fill="black"/>
<path d="M369.278 137.323C398.516 137.323 422.217 161.025 422.217 190.262L422.217 193.677C422.217 222.915 398.516 246.616 369.279 246.616C340.041 246.616 316.34 222.915 316.34 193.677L316.34 190.262C316.34 161.025 340.041 137.323 369.278 137.323Z" fill="black"/>
<path d="M575.913 137.323C604.207 137.323 627.144 160.26 627.144 188.554L627.144 195.385C627.144 223.679 604.207 246.616 575.913 246.616C547.619 246.616 524.682 223.679 524.682 195.385L524.682 188.554C524.682 160.26 547.619 137.323 575.913 137.323Z" fill="black"/>
</svg>
