<svg width="156" height="80" viewBox="0 0 156 80" fill="none" xmlns="http://www.w3.org/2000/svg">
<path d="M0 0H156V80H0V0Z" fill="white"/>
<path d="M136.808 47.5599C137.816 49.0479 140.072 50.1519 142.04 50.1519C145.592 50.1519 147.944 47.4639 147.944 43.4319C147.944 39.3999 145.592 36.6639 142.04 36.6639C140.072 36.6639 137.816 37.8159 136.808 39.3519V47.5599ZM136.808 54.9999H130.712V22.9839H136.808V34.7919C138.632 32.4399 141.224 31.2399 143.96 31.2399C149.864 31.2399 154.232 35.8479 154.232 43.4319C154.232 51.1599 149.816 55.5759 143.96 55.5759C141.176 55.5759 138.632 54.3279 136.808 52.0239V54.9999Z" fill="#3B00B7"/>
<path d="M124.665 55H118.569V52.6C116.985 54.472 114.249 55.576 111.225 55.576C107.529 55.576 103.161 53.08 103.161 47.896C103.161 42.472 107.529 40.408 111.225 40.408C114.297 40.408 117.033 41.416 118.569 43.24V40.12C118.569 37.768 116.553 36.232 113.481 36.232C110.985 36.232 108.681 37.144 106.713 38.968L104.409 34.888C107.241 32.392 110.889 31.24 114.537 31.24C119.817 31.24 124.665 33.352 124.665 40.024V55ZM113.673 51.448C115.641 51.448 117.561 50.776 118.569 49.432V46.552C117.561 45.208 115.641 44.536 113.673 44.536C111.273 44.536 109.305 45.784 109.305 48.04C109.305 50.2 111.273 51.448 113.673 51.448Z" fill="#3B00B7"/>
<path d="M100.348 54.9999H79.9961V22.9839H86.8121V48.9999H100.348V54.9999Z" fill="#3B00B7"/>
<path d="M73.6402 54.9999H66.8242V22.9839H73.6402V54.9999Z" fill="#3B00B7"/>
<path d="M63.8678 54.9999H56.0918L54.1238 49.5759H40.3958L38.3798 54.9999H30.6038L42.9878 22.9839H51.5318L63.8678 54.9999ZM52.2518 43.5759L47.2598 29.7999L42.2678 43.5759H52.2518Z" fill="#3B00B7"/>
<path d="M29.088 54.9999H21.264L14.976 43.6239H9.98397V54.9999H3.16797V22.9839H18.144C24.816 22.9839 28.896 27.3519 28.896 33.3039C28.896 38.9679 25.344 41.9919 21.888 42.8079L29.088 54.9999ZM17.136 37.6239C19.872 37.6239 21.936 35.9919 21.936 33.3039C21.936 30.6159 19.872 28.9839 17.136 28.9839H9.98397V37.6239H17.136Z" fill="#3B00B7"/>
</svg>
